<svg xmlns="http://www.w3.org/2000/svg" xmlns:xlink="http://www.w3.org/1999/xlink" viewBox="0,0,256,256" width="24px" height="24px"><g fill="#c7c9c8" fill-rule="nonzero" stroke="none" stroke-width="1" stroke-linecap="butt" stroke-linejoin="miter" stroke-miterlimit="10" stroke-dasharray="" stroke-dashoffset="0" font-family="none" font-weight="none" font-size="none" text-anchor="none" style="mix-blend-mode: normal"><g transform="scale(10.66667,10.66667)"><path d="M14.633,2c0.127,0.86 -0.226,1.703 -0.691,2.3c-0.485,0.624 -1.312,1.109 -2.12,1.109c-0.021,0 -0.042,0 -0.063,-0.001c-0.153,-0.822 0.237,-1.671 0.707,-2.243c0.519,-0.627 1.408,-1.113 2.167,-1.165M15.342,6.215c1.229,0 2.53,0.669 3.46,1.824c-2.569,1.926 -2.357,5.42 0.525,7.167c-0.423,0.936 -0.626,1.355 -1.169,2.183c-0.76,1.157 -1.83,2.598 -3.156,2.609c-0.006,0 -0.012,0 -0.019,0c-1.151,0 -1.467,-0.756 -3.019,-0.756c-0.015,0 -0.029,0 -0.044,0c-1.586,0.006 -1.926,0.758 -3.085,0.758c-0.009,0 -0.019,0 -0.028,0c-1.324,-0.012 -2.338,-1.312 -3.098,-2.466c-2.123,-3.236 -2.348,-7.029 -1.035,-9.046c0.927,-1.431 2.398,-2.272 3.778,-2.272c1.407,0 2.288,0.772 3.451,0.772c1.128,0 1.814,-0.773 3.439,-0.773M14.635,0c-0.046,0 -0.092,0.002 -0.138,0.005c-1.296,0.089 -2.698,0.829 -3.572,1.887c-0.621,0.756 -1.012,1.613 -1.147,2.475c-0.396,-0.089 -0.838,-0.152 -1.326,-0.152c-2.093,0 -4.183,1.22 -5.456,3.184c-1.854,2.849 -1.427,7.468 1.041,11.231c0.66,1.003 2.202,3.345 4.752,3.369h0.001c1.007,0 1.664,-0.293 2.144,-0.506c0.374,-0.166 0.561,-0.25 0.994,-0.252h0.001c0.433,0 0.597,0.075 0.955,0.239c0.45,0.206 1.13,0.517 2.099,0.517c2.552,-0.02 4.159,-2.466 4.846,-3.51c0.61,-0.93 0.858,-1.438 1.32,-2.457c0.417,-0.922 0.08,-2.01 -0.785,-2.535c-0.821,-0.497 -1.313,-1.22 -1.35,-1.982c-0.035,-0.705 0.316,-1.371 0.988,-1.874c0.434,-0.325 0.717,-0.813 0.785,-1.351c0.068,-0.538 -0.086,-1.081 -0.427,-1.503c-1.083,-1.345 -2.57,-2.237 -4.108,-2.493c0.356,-0.836 0.486,-1.731 0.36,-2.584c-0.146,-0.987 -0.993,-1.708 -1.977,-1.708z"></path></g></g></svg>