<svg xmlns="http://www.w3.org/2000/svg" xmlns:xlink="http://www.w3.org/1999/xlink" viewBox="0,0,256,256" width="24px" height="24px"><g fill="#c7c9c8" fill-rule="nonzero" stroke="none" stroke-width="1" stroke-linecap="butt" stroke-linejoin="miter" stroke-miterlimit="10" stroke-dasharray="" stroke-dashoffset="0" font-family="none" font-weight="none" font-size="none" text-anchor="none" style="mix-blend-mode: normal"><g transform="scale(5.12,5.12)"><path d="M5.489,24.746l12.936,3.715l-2.843,-8.842zM44.571,25.524l-12.81,-2.869l2.312,9.607zM17.676,17.451l11.39,2.551l-3.702,-15.385zM29.587,22.168l-11.944,-2.675l3.096,9.633l11.303,3.246zM31.877,34.405l-10.401,-2.987l4.506,14.017zM33.992,34.691l-6.819,12.758l19.578,-20.947zM47.226,24.019l-20.384,-21.811l4.399,18.281l15.799,3.538c0.061,-0.012 0.124,-0.008 0.186,-0.008zM19.161,30.753l-16.24,-4.664l21.724,21.725zM15.306,17.516l8.933,-14.912l-21.085,21.085z"></path></g></g></svg>