<svg xmlns="http://www.w3.org/2000/svg" xmlns:xlink="http://www.w3.org/1999/xlink" viewBox="0,0,256,256" width="24px" height="24px"><g fill="#c7c9c8" fill-rule="nonzero" stroke="none" stroke-width="1" stroke-linecap="butt" stroke-linejoin="miter" stroke-miterlimit="10" stroke-dasharray="" stroke-dashoffset="0" font-family="none" font-weight="none" font-size="none" text-anchor="none" style="mix-blend-mode: normal"><g transform="scale(10.66667,10.66667)"><path d="M8.82617,3.47461c-0.18459,-0.02569 -0.3754,-0.02131 -0.56836,0.01758l0.00195,-0.00195c-1.00315,0.19931 -2.01246,0.54533 -3.02148,0.95703c-0.61614,0.25166 -1.14032,0.68838 -1.50195,1.24805c-2.35101,3.61317 -3.01854,7.39561 -2.63086,11.13477c0.0311,0.30213 0.19781,0.57376 0.45313,0.73828c1.44902,0.93173 2.95982,1.75165 4.57422,2.31836c0.83528,0.29754 1.76913,-0.05643 2.23438,-0.78125c0.00065,0 0.0013,0 0.00195,0l0.55078,-0.86328c0.97681,0.30676 2.0038,0.48828 3.07031,0.48828c1.06364,0 2.0894,-0.17891 3.06445,-0.48437l0.58398,0.88477c0,0.00065 0,0.0013 0,0.00195c0.47074,0.7101 1.3938,1.0472 2.21289,0.76367c0.0013,-0.00065 0.00261,-0.0013 0.00391,-0.00195c1.62016,-0.56887 3.13437,-1.39412 4.58594,-2.32617c0.25606,-0.1641 0.42353,-0.43579 0.45508,-0.73828c0.38183,-3.68273 -0.28059,-7.40542 -2.54492,-10.96875c-0.02419,-0.06074 -0.05429,-0.11896 -0.08984,-0.17383c-0.36388,-0.55653 -0.88903,-0.98989 -1.50195,-1.24023c-1.00898,-0.41168 -2.01753,-0.7549 -3.01758,-0.95508h-0.00195c-0.77298,-0.15488 -1.51009,0.24774 -1.92773,0.88867c-0.53398,-0.05012 -1.05115,-0.10564 -1.8125,-0.08789c-0.75946,-0.01782 -1.2763,0.03601 -1.81055,0.08594c-0.31374,-0.48144 -0.80951,-0.82723 -1.36328,-0.9043zM8.57617,5.47656l0.19141,0.37695c0.19307,0.38176 0.60759,0.59843 1.03125,0.53906c0.55199,-0.07742 1.21229,-0.12543 2.17578,-0.10156c0.01627,0.0004 0.03256,0.0004 0.04883,0c0.96561,-0.02388 1.62632,0.02424 2.17578,0.10156c0.42208,0.05916 0.83528,-0.15567 1.0293,-0.53516l0.19531,-0.38086c0.8008,0.16667 1.66981,0.45086 2.58008,0.82227c0.23734,0.09694 0.43427,0.2595 0.58008,0.48047c0.00065,0.0013 0.0013,0.00261 0.00195,0.00391c1.99848,3.07176 2.5416,6.14917 2.29687,9.3457c-1.19029,0.7346 -2.38706,1.40108 -3.61328,1.83984l-0.3418,-0.51758c0.0888,-0.04829 0.18414,-0.084 0.27148,-0.13477c0.39333,-0.21952 0.59137,-0.67489 0.48373,-1.11228c-0.10764,-0.43739 -0.49439,-0.74885 -0.94467,-0.76077c-0.19155,-0.00566 -0.38069,0.04383 -0.54492,0.14258c-0.82112,0.47723 -1.71739,0.80062 -2.6582,0.98047c-0.49884,0.07624 -1.01274,0.12625 -1.54883,0.13867c-0.5235,-0.01213 -1.02857,-0.0597 -1.51953,-0.13281c-0.94933,-0.17869 -1.85199,-0.50527 -2.67969,-0.98633c-0.30912,-0.17978 -0.69069,-0.18096 -1.00092,-0.00309c-0.31023,0.17787 -0.50198,0.50775 -0.503,0.86535c-0.00102,0.3576 0.18885,0.68857 0.49806,0.86821c0.08735,0.05077 0.18268,0.08647 0.27148,0.13477l-0.32812,0.51367c-1.22411,-0.43727 -2.41853,-1.1015 -3.60742,-1.83594c-0.24482,-3.19668 0.29954,-6.27409 2.29883,-9.3457c0,-0.00065 0,-0.0013 0,-0.00195c0.14209,-0.2199 0.34288,-0.386 0.57813,-0.48242c0.91081,-0.37163 1.78171,-0.65665 2.58203,-0.82227zM8.75,10c-0.961,0 -1.75,0.904 -1.75,2c0,1.096 0.789,2 1.75,2c0.961,0 1.75,-0.904 1.75,-2c0,-1.096 -0.789,-2 -1.75,-2zM15.25,10c-0.961,0 -1.75,0.904 -1.75,2c0,1.096 0.789,2 1.75,2c0.961,0 1.75,-0.904 1.75,-2c0,-1.096 -0.789,-2 -1.75,-2z"></path></g></g></svg>