<svg xmlns="http://www.w3.org/2000/svg" fill="#c7c9c8"  viewBox="0 0 24 24" width="24px" height="24px"><path d="M 4.25 3 C 3.0189372 3 2 4.0189372 2 5.25 L 2 17.75 C 2 18.981063 3.0189372 20 4.25 20 L 19.75 20 C 20.981063 20 22 18.981063 22 17.75 L 22 7.25 C 22 6.0189372 20.981063 5 19.75 5 L 10.621094 5 C 10.48775 5 10.361526 4.9474637 10.267578 4.8535156 L 9.1464844 3.7324219 C 8.6784324 3.2643699 8.0415629 3 7.3789062 3 L 4.25 3 z M 4.25 5 L 7.3789062 5 C 7.5122497 5 7.6384738 5.052536 7.7324219 5.1464844 L 8.8535156 6.2675781 C 9.3215676 6.7356301 9.9584369 7 10.621094 7 L 19.75 7 C 19.898937 7 20 7.1010628 20 7.25 L 20 17.75 C 20 17.898937 19.898937 18 19.75 18 L 4.25 18 C 4.1010628 18 4 17.898937 4 17.75 L 4 5.25 C 4 5.1010628 4.1010628 5 4.25 5 z"/></svg>